<svg width="993" height="694" viewBox="0 0 993 694" fill="none" xmlns="http://www.w3.org/2000/svg">
<path d="M287.536 6.05493V260.532L512.523 366.487V112.003L287.536 6.05493Z" fill="black"/>
<path d="M127.264 137.106L250.058 107.977V0.112793L3.458 58.2999C0.625744 58.9644 0.0644531 61.4805 0.0644531 64.3838V314.919L112.561 288.119V155.364H112.555C112.555 154.906 113.452 154.481 113.484 154.029C113.535 153.306 113.961 152.59 114.097 151.893C114.206 151.293 114.606 150.739 114.768 150.164C114.935 149.571 115.181 148.984 115.413 148.416C115.652 147.829 116.013 147.274 116.31 146.706C116.574 146.197 116.839 145.693 117.148 145.21C117.484 144.687 117.897 144.222 118.284 143.732C118.652 143.268 119.006 142.803 119.406 142.377C119.819 141.951 120.29 141.577 120.748 141.19C121.213 140.79 121.658 140.377 122.161 140.029C122.671 139.668 123.232 139.384 123.781 139.074C124.284 138.79 124.774 138.481 125.316 138.242C125.955 137.964 126.639 137.764 127.323 137.551C127.755 137.41 126.806 137.216 127.264 137.106Z" fill="black"/>
<path d="M150.052 170.223V279.326L250.039 255.597V146.494L150.052 170.223Z" fill="black"/>
<path d="M287.536 302.061V405.823L381.284 449.829V346.113L287.536 302.061Z" fill="black"/>
<path d="M418.781 363.971V467.668L512.523 511.681V408.01L418.781 363.971Z" fill="black"/>
<path d="M287.536 447.268V546.048L381.284 590.061V491.319L287.536 447.268Z" fill="black"/>
<path d="M418.781 509.19V607.913L512.523 651.926V553.242L418.781 509.19Z" fill="black"/>
<path d="M550.02 116.887V372.513L656.265 347.571V91.1968L550.02 116.887Z" fill="black"/>
<path d="M797.8 59.4743C796.303 58.2936 794.297 57.8614 792.419 58.3001L693.755 82.1259V196.087L800 171.139V64.3839C800 62.4678 799.316 60.6614 797.8 59.4743Z" fill="black"/>
<path d="M6.27101 597.513L250.045 539.184V294.119L150.052 317.848V446.261C150.052 455.726 146.129 464.797 136.639 467.016L4.06456 498.216C2.63552 498.556 1.46617 498.716 0.0581055 498.719V591.424C0.0581055 593.34 0.858105 595.14 2.36133 596.327C3.47746 597.211 4.80649 597.676 6.20004 597.676C6.67746 597.674 5.79359 597.623 6.27101 597.513Z" fill="black"/>
<path d="M0.0320775 498.719C0.0417549 498.719 0.0482066 498.719 0.057884 498.719V498.694C0.057884 498.694 -0.0517934 498.719 0.0320775 498.719Z" fill="black"/>
<path d="M0.0581055 353.435V460.764L112.555 433.964V326.642L0.0581055 353.435Z" fill="black"/>
<path d="M693.755 279.387V234.61L800 209.661V277.736C765.31 267.644 728.179 268.195 693.755 279.387Z" fill="black"/>
<path d="M575.365 405.091L550.02 411.042V655.887L693.655 621.698C667.557 613.196 643.017 598.576 622.279 577.838C575.466 531.025 559.829 464.844 575.365 405.091Z" fill="black"/>
<path fill-rule="evenodd" clip-rule="evenodd" d="M890.202 562.919C946.806 492.245 942.351 388.794 876.837 323.279C806.542 252.985 692.573 252.985 622.278 323.279C551.984 393.574 551.984 507.543 622.278 577.838C687.793 643.352 791.244 647.807 861.918 591.203L964.324 693.609L992.608 665.325L890.202 562.919ZM848.553 351.564C903.226 406.237 903.226 494.88 848.553 549.554C793.879 604.227 705.236 604.227 650.563 549.554C595.889 494.88 595.889 406.237 650.563 351.564C705.236 296.89 793.879 296.89 848.553 351.564Z" fill="#646464"/>
</svg>
