<svg width="800" height="800" viewBox="0 0 800 800" fill="none" xmlns="http://www.w3.org/2000/svg">
<path d="M287.536 78.0549V332.532L512.523 438.487V184.003L287.536 78.0549Z" fill="#1C274C" fill-opacity="0.5"/>
<path d="M550.02 483.042V727.887L795.29 669.507C798.103 668.836 800 666.319 800 663.423V424.345L550.02 483.042Z" fill="#1C274C"/>
<path d="M127.264 209.106L250.058 179.977V72.1128L3.458 130.3C0.625744 130.964 0.0644531 133.481 0.0644531 136.384V386.919L112.561 360.119V227.364H112.555C112.555 226.906 113.452 226.481 113.484 226.029C113.535 225.306 113.961 224.59 114.097 223.893C114.206 223.293 114.606 222.739 114.768 222.164C114.935 221.571 115.181 220.984 115.413 220.416C115.652 219.829 116.013 219.274 116.31 218.706C116.574 218.197 116.839 217.693 117.148 217.21C117.484 216.687 117.897 216.222 118.284 215.732C118.652 215.268 119.006 214.803 119.406 214.377C119.819 213.951 120.29 213.577 120.748 213.19C121.213 212.79 121.658 212.377 122.161 212.029C122.671 211.668 123.232 211.384 123.781 211.074C124.284 210.79 124.774 210.481 125.316 210.242C125.955 209.964 126.639 209.764 127.323 209.551C127.755 209.41 126.806 209.216 127.264 209.106Z" fill="#1C274C"/>
<path d="M150.052 242.223V351.326L250.039 327.597V218.494L150.052 242.223Z" fill="#1C274C"/>
<path d="M287.536 374.061V477.823L381.284 521.829V418.113L287.536 374.061Z" fill="#1C274C" fill-opacity="0.5"/>
<path d="M418.781 435.971V539.668L512.523 583.681V480.01L418.781 435.971Z" fill="#1C274C" fill-opacity="0.5"/>
<path d="M287.536 519.268V618.048L381.284 662.061V563.319L287.536 519.268Z" fill="#1C274C" fill-opacity="0.5"/>
<path d="M418.781 581.19V679.913L512.523 723.926V625.242L418.781 581.19Z" fill="#1C274C" fill-opacity="0.5"/>
<path d="M550.02 188.887V444.513L656.265 419.571V163.197L550.02 188.887Z" fill="#1C274C"/>
<path d="M797.8 131.474C796.303 130.294 794.297 129.861 792.419 130.3L693.755 154.126V268.087L800 243.139V136.384C800 134.468 799.316 132.661 797.8 131.474Z" fill="#1C274C"/>
<path d="M693.755 306.61V410.778L800 385.829V281.661L693.755 306.61Z" fill="#1C274C"/>
<path d="M6.27101 669.513L250.045 611.184V366.119L150.052 389.848V518.261C150.052 527.726 146.129 536.797 136.639 539.016L4.06456 570.216C2.63552 570.556 1.46617 570.716 0.0581055 570.719V663.424C0.0581055 665.34 0.858105 667.14 2.36133 668.327C3.47746 669.211 4.80649 669.676 6.20004 669.676C6.67746 669.674 5.79359 669.623 6.27101 669.513Z" fill="#1C274C"/>
<path d="M0.0320775 570.719C0.0417549 570.719 0.0482066 570.719 0.057884 570.719V570.694C0.057884 570.694 -0.0517934 570.719 0.0320775 570.719Z" fill="#1C274C"/>
<path d="M0.0581055 425.435V532.764L112.555 505.964V398.642L0.0581055 425.435Z" fill="#1C274C"/>
</svg>
