<svg width="800" height="800" viewBox="0 0 800 800" fill="none" xmlns="http://www.w3.org/2000/svg">
<path d="M727.723 327.725C697.991 327.725 672.405 345.773 661.32 371.487H604.022C599.081 335.964 585.056 303.311 564.362 275.961L604.941 235.383C630.961 245.728 661.817 240.395 682.839 219.373C711.019 191.192 711.019 145.341 682.839 117.159C654.659 88.9781 608.806 88.9797 580.625 117.161C559.603 138.184 554.273 169.041 564.617 195.058L524.036 235.636C496.686 214.945 464.031 200.917 428.509 195.977V138.68C454.223 127.595 472.272 102.008 472.272 72.275C472.272 32.425 439.848 0 399.995 0C360.142 0 327.719 32.4234 327.719 72.275C327.719 102.008 345.767 127.595 371.481 138.68V195.977C335.958 200.917 303.305 214.944 275.955 235.636L235.377 195.058C245.722 169.037 240.391 138.183 219.369 117.161L219.367 117.159C191.188 88.9781 145.333 88.9828 117.153 117.159C88.9031 145.409 88.9062 191.13 117.153 219.373C138.177 240.397 169.033 245.725 195.052 235.383L235.633 275.962C214.942 303.312 200.914 335.967 195.973 371.489H138.678C127.594 345.775 102.008 327.727 72.275 327.727C32.4234 327.725 0 360.147 0 400.002C0 439.856 32.4234 472.278 72.2766 472.278C102.009 472.278 127.595 454.23 138.678 428.516H195.977C200.917 464.039 214.944 496.692 235.636 524.042L195.058 564.62C169.037 554.278 138.181 559.608 117.159 580.63C88.9078 608.88 88.9125 654.597 117.159 682.844C172.558 738.242 264.202 677.439 235.383 604.945L275.962 564.367C303.312 585.058 335.967 599.086 371.489 604.027V661.323C345.775 672.408 327.727 697.995 327.727 727.727C327.727 767.58 360.15 800.003 400.003 800.003C439.856 800.003 472.28 767.581 472.28 727.727C472.28 697.994 454.231 672.408 428.517 661.323V604.027C464.041 599.086 496.694 585.059 524.044 564.367L564.622 604.945C535.681 677.742 627.248 738.441 682.845 682.842C711.025 654.661 711.025 608.809 682.845 580.628C661.823 559.605 630.966 554.277 604.947 564.619L564.366 524.038C585.056 496.688 599.084 464.033 604.025 428.511H661.323C672.408 454.225 697.994 472.273 727.727 472.273C767.58 472.273 800.003 439.852 800.003 399.997C800.003 360.142 767.577 327.725 727.723 327.725ZM400 463.592C364.878 463.592 336.409 435.12 336.409 400.002C336.409 364.883 364.88 336.411 400 336.411C435.12 336.411 463.591 364.881 463.591 400.002C463.591 435.122 435.122 463.592 400 463.592Z" fill="url(#paint0_linear_4143_826)"/>
<defs>
<linearGradient id="paint0_linear_4143_826" x1="400.002" y1="0" x2="400.002" y2="800.003" gradientUnits="userSpaceOnUse">
<stop stop-color="#1C274C" stop-opacity="0.9"/>
<stop offset="1" stop-color="#1C274C"/>
</linearGradient>
</defs>
</svg>
